<?xml version="1.0" encoding="utf-8"?>
<!-- Generator: Adobe Illustrator 26.2.1, SVG Export Plug-In . SVG Version: 6.00 Build 0)  -->
<svg version="1.1" id="Laag_1" xmlns="http://www.w3.org/2000/svg" xmlns:xlink="http://www.w3.org/1999/xlink" x="0px" y="0px"
	 viewBox="0 0 409.9 539.8" style="enable-background:new 0 0 409.9 539.8;" xml:space="preserve">
<style type="text/css">
	.st0{fill:#FFFFFF;}
</style>
<g>
	<path class="st0" d="M104.2,206.6c15.7,0,27.4-3.4,34.7-10.1c7.8-6.7,11.2-17.4,11.2-31.4c0-14.6-3.9-25.2-11.2-31.9
		c-7.3-6.7-19-10.6-35.3-10.6H66.1v116.5h23.5v-32.5L104.2,206.6z M89.6,145H103c7.8,0,13.4,1.7,17.4,4.5c3.9,2.8,5.6,7.8,5.6,14.6
		s-1.7,11.8-4.5,15.1c-2.8,3.4-8.4,5-16.2,5H89.6L89.6,145z"/>
	<path class="st0" d="M242.5,222.9c10.1-10.6,14.6-24.6,14.6-43.1c0-17.9-5-32.5-15.1-42.6c-10.1-10.1-24.6-15.1-43.7-15.1h-37.5
		v116.5h36.4C217.3,239.1,232.4,233.5,242.5,222.9L242.5,222.9z M224.6,207.2c-5.6,6.2-14,9-24.6,9h-15.1V145h13.4
		c11.8,0,20.7,3.4,26.9,9.5c5.6,6.2,9,15.1,9,26.3C233.5,192.1,230.2,201,224.6,207.2L224.6,207.2z"/>
	<path class="st0" d="M342.7,145.6v-23h-72.8v116.5h23.5v-45.9h46.5v-22.4h-46.5v-25.2H342.7z"/>
	<path class="st0" d="M373.5,0H35.3C15.7,0,0,15.7,0,35.3v413.3c0,19.6,15.7,35.3,35.3,35.3h77.8l-21.3-21.3h-56
		c-7.8,0-14-6.2-14-14l0-413.3c0-7.8,6.2-14,14-14h338.8c7.8,0,14,6.2,14,14v413.3c0,7.8-6.2,14-14,14h-48.2l-21.3,21.3h69.4
		c19.6,0,35.3-15.7,35.3-35.3l0-413.3C409.4,15.7,393.1,0,373.5,0L373.5,0z"/>
	<path class="st0" d="M328.2,417.8l-73.4-0.6v-121H154v119.3l-73.4-1.1l125.4,125.4L328.2,417.8z"/>
</g>
</svg>
